<svg width="40" height="40" viewBox="0 0 40 40" fill="none" xmlns="http://www.w3.org/2000/svg">
<path d="M20.6347 30.6236H19.2427V33.0958H20.6347V30.6236Z" fill="#EE4036"/>
<path d="M13.7862 28.8307L12.5613 30.8575L13.7751 31.5479L15 29.5212L13.7862 28.8307Z" fill="#EE4036"/>
<path d="M10.0222 24.4878L8.00659 25.657L8.69702 26.8597L10.7126 25.6904L10.0222 24.4878Z" fill="#EE4036"/>
<path d="M8.86406 18.8753H6.57007V20.2673H8.86406V18.8753Z" fill="#EE4036"/>
<path d="M8.70825 12.2829L8.01782 13.4967L10.0557 14.6771L10.7461 13.4744L8.70825 12.294V12.2829Z" fill="#EE4036"/>
<path d="M13.864 7.63921L12.6501 8.32963L13.8751 10.4009L15.0889 9.71048L13.864 7.63921Z" fill="#EE4036"/>
<path d="M20.6347 6.20268H19.2427V8.76393H20.6347V6.20268Z" fill="#EE4036"/>
<path d="M26.0247 7.63921L24.822 9.6548L26.0358 10.3452L27.2385 8.32963L26.0358 7.63921H26.0247Z" fill="#EE4036"/>
<path d="M31.1803 12.2829L29.0979 13.4299L29.7883 14.6325L31.8707 13.4855L31.1803 12.2717V12.2829Z" fill="#EE4036"/>
<path d="M33.3185 18.8753H30.7795V20.2673H33.3185V18.8753Z" fill="#EE4036"/>
<path d="M29.8777 24.4878L29.1873 25.6904L31.2474 26.882L31.9378 25.6793L29.8777 24.4878Z" fill="#EE4036"/>
<path d="M26.1135 28.8307L24.8997 29.5212L26.0244 31.6147L27.2271 30.9243L26.1023 28.8307H26.1135Z" fill="#EE4036"/>
<path d="M19.9555 33.5523C27.6432 33.5523 33.8753 27.3202 33.8753 19.6325C33.8753 11.9448 27.6432 5.71269 19.9555 5.71269C12.2678 5.71269 6.03564 11.9448 6.03564 19.6325C6.03564 27.3202 12.2678 33.5523 19.9555 33.5523Z" stroke="#FDC300"/>
<path d="M19.9553 30.2116C25.798 30.2116 30.5344 25.4752 30.5344 19.6325C30.5344 13.7898 25.798 9.05344 19.9553 9.05344C14.1126 9.05344 9.37622 13.7898 9.37622 19.6325C9.37622 25.4752 14.1126 30.2116 19.9553 30.2116Z" stroke="#FDC300"/>
<path d="M19.944 40L23.6857 36.2138C23.6857 36.2138 22.6834 36.4365 21.5699 36.5813L19.944 38.2183L18.3739 36.559C17.2937 36.4143 16.3137 36.2138 16.3137 36.2138L19.944 40Z" fill="#EE4036"/>
<path d="M20.0558 36.6927C19.5547 36.6927 18.9533 36.637 18.3743 36.559L19.9444 38.2071L21.5703 36.5702C21.0469 36.637 20.5124 36.6927 20.0558 36.6927Z" fill="#FDC300"/>
<path d="M9.94433 37.294L15.078 35.8797C15.078 35.8797 14.098 35.5679 13.0624 35.1448L10.8463 35.7461L10.3118 33.5301C9.44322 32.873 8.70825 32.1938 8.70825 32.1938L9.94433 37.294Z" fill="#EE4036"/>
<path d="M11.6926 34.4766C11.2583 34.2316 10.7572 33.8753 10.3118 33.519L10.8463 35.735L13.0623 35.1336C12.5835 34.9332 12.0935 34.7105 11.6926 34.4766Z" fill="#FDC300"/>
<path d="M2.65015 29.9443L7.80606 31.2918C7.80606 31.2918 7.1045 30.5345 6.42521 29.6437L4.19803 29.0535L4.84391 26.8708C4.43189 25.8686 4.12008 24.9109 4.12008 24.9109L2.65015 29.9555V29.9443Z" fill="#EE4036"/>
<path d="M5.55672 28.3853C5.31173 27.951 5.05561 27.3942 4.83289 26.8708L4.18701 29.0534L6.41419 29.6436C6.10238 29.2093 5.79058 28.7751 5.55672 28.3742V28.3853Z" fill="#FDC300"/>
<path d="M0 19.9332L3.7862 23.6748C3.7862 23.6748 3.56348 22.6726 3.41871 21.559L1.78174 19.9332L3.42985 18.363C3.57462 17.2828 3.77506 16.3029 3.77506 16.3029L0 19.9332Z" fill="#EE4036"/>
<path d="M3.29622 20.0446C3.29622 19.5434 3.3519 18.9421 3.42985 18.363L1.78174 19.9332L3.41871 21.559C3.3519 21.0468 3.29622 20.5123 3.29622 20.0446Z" fill="#FDC300"/>
<path d="M2.70605 9.93319L4.12031 15.0668C4.12031 15.0668 4.43212 14.0757 4.85528 13.0512L4.25394 10.8352L6.46998 10.3007C7.127 9.43208 7.80629 8.69711 7.80629 8.69711L2.70605 9.93319Z" fill="#EE4036"/>
<path d="M5.51202 11.6926C5.757 11.2583 6.11335 10.7572 6.4697 10.3118L4.25366 10.8463L4.855 13.0624C5.05545 12.5835 5.2893 12.0824 5.51202 11.6926Z" fill="#FDC300"/>
<path d="M10.0445 2.63921L8.69702 7.79511C8.69702 7.79511 9.4654 7.09355 10.3451 6.41426L10.9353 4.18709L13.118 4.83297C14.1202 4.42094 15.0779 4.10914 15.0779 4.10914L10.0445 2.63921Z" fill="#EE4036"/>
<path d="M11.6034 5.54566C12.0377 5.30067 12.5834 5.04455 13.129 4.82183L10.9464 4.17595L10.3562 6.40312C10.7571 6.10245 11.2025 5.79065 11.6034 5.54566Z" fill="#FDC300"/>
<path d="M20.0554 0L16.3137 3.78619C16.3137 3.78619 17.3159 3.56347 18.4295 3.41871L20.0554 1.78174L21.6255 3.42984C22.7057 3.57461 23.6857 3.77506 23.6857 3.77506L20.0554 0Z" fill="#EE4036"/>
<path d="M19.9439 3.29623C20.445 3.29623 21.0464 3.35191 21.6254 3.42986L20.0553 1.78175L18.4294 3.41872C18.9528 3.34077 19.4874 3.29623 19.9439 3.29623Z" fill="#FDC300"/>
<path d="M30.0445 2.70602L24.9109 4.12028C24.9109 4.12028 25.902 4.43208 26.9265 4.85524L29.1425 4.25391L29.677 6.46994C30.5456 7.12696 31.2806 7.80625 31.2806 7.80625L30.0445 2.70602Z" fill="#EE4036"/>
<path d="M28.3075 5.51226C28.7418 5.75725 29.2317 6.11359 29.6883 6.46994L29.1538 4.25391L26.9377 4.85524C27.4166 5.05569 27.9066 5.2784 28.3075 5.51226Z" fill="#FDC300"/>
<path d="M37.3495 10.0334L32.1936 8.68597C32.1936 8.68597 32.8952 9.45435 33.5745 10.3341L35.8016 10.9243L35.1557 13.1069C35.5678 14.1091 35.8796 15.0668 35.8796 15.0668L37.3495 10.0334Z" fill="#EE4036"/>
<path d="M34.4319 11.5924C34.6769 12.0267 34.933 12.5724 35.1558 13.118L35.8016 10.9354L33.5745 10.3452C33.8863 10.7572 34.1981 11.2027 34.4319 11.5924Z" fill="#FDC300"/>
<path d="M39.9998 20.0557L36.2136 16.3141C36.2136 16.3141 36.4363 17.3163 36.5811 18.4299L38.2181 20.0557L36.57 21.6259C36.4252 22.706 36.2248 23.686 36.2248 23.686L39.9998 20.0557Z" fill="#EE4036"/>
<path d="M36.6925 19.9443C36.6925 20.4454 36.6368 21.0468 36.5588 21.6258L38.2069 20.0557L36.57 18.4298C36.6368 18.9421 36.6925 19.4766 36.6925 19.9443Z" fill="#FDC300"/>
<path d="M37.2938 30.0334L35.8796 24.8998C35.8796 24.8998 35.5678 25.8797 35.1446 26.9154L35.7459 29.1314L33.5299 29.6659C32.8729 30.5345 32.1936 31.2695 32.1936 31.2695L37.2938 30.0334Z" fill="#EE4036"/>
<path d="M34.4877 28.2962C34.2427 28.7305 33.8864 29.2205 33.53 29.6771L35.7461 29.1426L35.1447 26.9265C34.9443 27.4054 34.7104 27.8953 34.4877 28.2962Z" fill="#FDC300"/>
<path d="M29.9555 37.3497L31.303 32.1938C31.303 32.1938 30.5457 32.8953 29.6549 33.5746L29.0647 35.8018L26.882 35.1559C25.8798 35.5679 24.9221 35.8797 24.9221 35.8797L29.9667 37.3497H29.9555Z" fill="#EE4036"/>
<path d="M28.3851 34.4209C27.9508 34.6659 27.4051 34.9221 26.8706 35.1448L29.0532 35.7906L29.6434 33.5635C29.2203 33.8753 28.7748 34.1871 28.3739 34.4209H28.3851Z" fill="#FDC300"/>
<path d="M24.4096 37.3051L22.3271 39.343C22.3271 39.343 23.875 39.1759 24.8327 38.931C25.7904 38.686 27.2269 38.0735 27.2269 38.0735L24.4096 37.3051Z" fill="#FDC300"/>
<path d="M15.1557 37.2161L12.3271 37.9399C12.3271 37.9399 13.7414 38.5746 14.6991 38.8419C15.6568 39.098 17.2047 39.2985 17.2047 39.2985L15.1557 37.2161Z" fill="#FDC300"/>
<path d="M7.18271 32.5167L4.37646 31.7372C4.37646 31.7372 5.28961 32.9955 5.98003 33.6971C6.67045 34.3987 7.91767 35.3452 7.91767 35.3452L7.18271 32.5167Z" fill="#FDC300"/>
<path d="M2.63943 24.4543L0.601562 22.3719C0.601562 22.3719 0.768601 23.9198 1.01359 24.8775C1.25858 25.8352 1.87105 27.2717 1.87105 27.2717L2.63943 24.4543Z" fill="#FDC300"/>
<path d="M2.73939 15.2116L2.01556 12.3831C2.01556 12.3831 1.38081 13.7973 1.11355 14.755C0.857428 15.7127 0.656982 17.2606 0.656982 17.2606L2.73939 15.2116Z" fill="#FDC300"/>
<path d="M7.43886 7.24946L8.21838 4.44322C8.21838 4.44322 6.96002 5.35636 6.25846 6.04679C5.5569 6.73721 4.61035 7.98442 4.61035 7.98442L7.43886 7.24946Z" fill="#FDC300"/>
<path d="M15.4788 2.70603L17.5612 0.668167C17.5612 0.668167 16.0133 0.835205 15.0556 1.08019C14.0979 1.32518 12.6614 1.93765 12.6614 1.93765L15.4788 2.70603Z" fill="#FDC300"/>
<path d="M24.7327 2.78397L27.5612 2.06014C27.5612 2.06014 26.1469 1.4254 25.1893 1.15814C24.2316 0.902014 22.6948 0.701569 22.6948 0.701569L24.7327 2.78397Z" fill="#FDC300"/>
<path d="M32.7059 7.49443L35.5122 8.27394C35.5122 8.27394 34.599 7.01559 33.9086 6.31403C33.2182 5.61247 31.9709 4.66592 31.9709 4.66592L32.7059 7.49443Z" fill="#FDC300"/>
<path d="M37.2495 15.5457L39.2874 17.6281C39.2874 17.6281 39.1203 16.0802 38.8754 15.1225C38.6304 14.1648 38.0179 12.7283 38.0179 12.7283L37.2495 15.5457Z" fill="#FDC300"/>
<path d="M37.1492 24.7995L37.873 27.6281C37.873 27.6281 38.5077 26.2138 38.775 25.2561C39.0311 24.2984 39.2316 22.7617 39.2316 22.7617L37.1492 24.7995Z" fill="#FDC300"/>
<path d="M32.4497 32.7506L31.6702 35.5568C31.6702 35.5568 32.9285 34.6437 33.6301 33.9532C34.3316 33.2628 35.2782 32.0156 35.2782 32.0156L32.4497 32.7506Z" fill="#FDC300"/>
<path d="M17.4944 11.8374L19.6436 13.1181C18.8753 13.3408 18.0401 13.6748 17.2383 14.3207C18.2962 14.343 19.8664 15.0223 19.8664 16.8152C19.8664 18.0178 19.0312 19.6882 16.6592 19.6882C14.2873 19.6882 13.2739 18.029 13.2739 16.5368C13.2739 14.5657 14.922 12.372 17.4944 11.8263V11.8374ZM15.7238 16.8374C15.7238 17.2829 16.1136 17.6726 16.6258 17.6726C17.049 17.6726 17.4944 17.3163 17.4944 16.804C17.4944 16.2918 17.0267 15.9354 16.5924 15.9354C16.1804 15.9354 15.7238 16.2472 15.7238 16.8374Z" fill="#EE4036"/>
<path d="M27.7505 16.4477V18.029H26.2361V19.5991H23.608V18.029H19.9109V16.6259L24.1982 11.8374H26.2361V16.4477H27.7505ZM21.8931 16.4477H23.608V14.5546L21.8931 16.4477Z" fill="#EE4036"/>
<path d="M17.4164 27.8842H14.5099L17.3273 22.1047H14.3875V20.2227H21.1358L17.4164 27.8842Z" fill="#EE4036"/>
<path d="M23.0734 27.9844L20.4453 26.5479V26.5033C21.0912 26.3363 22.0266 25.98 22.8173 25.2339C21.0578 24.9555 20.4453 23.608 20.4453 22.7506C20.4453 21.8931 21.1803 20.1336 23.6747 20.1336C26.0021 20.1336 27.0043 21.7706 27.0043 23.1403C27.0043 25.5123 24.8217 27.1715 23.0734 27.9956V27.9844ZM24.5433 22.8174C24.5433 22.3497 24.187 21.9376 23.6859 21.9376C23.1847 21.9376 22.8173 22.3274 22.8173 22.7951C22.8173 23.2628 23.1847 23.6637 23.6636 23.6637C24.0867 23.6637 24.5433 23.363 24.5433 22.8174Z" fill="#EE4036"/>
</svg>
